<svg xmlns="http://www.w3.org/2000/svg" width="135" height="40" viewBox="0 0 135 40">
    <defs>
        <linearGradient id="prefix__a" x1="60.99%" x2="26.536%" y1="4.946%" y2="71.879%">
            <stop offset="0%" stop-color="#00A0FF"/>
            <stop offset="1%" stop-color="#00A1FF"/>
            <stop offset="26%" stop-color="#00BEFF"/>
            <stop offset="51%" stop-color="#00D2FF"/>
            <stop offset="76%" stop-color="#00DFFF"/>
            <stop offset="100%" stop-color="#00E3FF"/>
        </linearGradient>
        <linearGradient id="prefix__b" x1="107.685%" x2="-130.64%" y1="50%" y2="50%">
            <stop offset="0%" stop-color="#FFE000"/>
            <stop offset="41%" stop-color="#FFBD00"/>
            <stop offset="78%" stop-color="orange"/>
            <stop offset="100%" stop-color="#FF9C00"/>
        </linearGradient>
        <linearGradient id="prefix__c" x1="86.271%" x2="-50.18%" y1="30.873%" y2="136.109%">
            <stop offset="0%" stop-color="#FF3A44"/>
            <stop offset="100%" stop-color="#C31162"/>
        </linearGradient>
        <linearGradient id="prefix__d" x1="-18.825%" x2="42.086%" y1="-11.91%" y2="35.079%">
            <stop offset="0%" stop-color="#32A071"/>
            <stop offset="7%" stop-color="#2DA771"/>
            <stop offset="48%" stop-color="#15CF74"/>
            <stop offset="80%" stop-color="#06E775"/>
            <stop offset="100%" stop-color="#00F076"/>
        </linearGradient>
    </defs>
    <g fill="none">
        <rect width="135" height="40" fill="#000" rx="5"/>
        <path fill="#A6A6A6" d="M130 .8c2.32 0 4.2 1.88 4.2 4.2v30c0 2.32-1.88 4.2-4.2 4.2H5C2.68 39.2.8 37.32.8 35V5C.8 2.68 2.68.8 5 .8h125zm0-.8H5C2.239 0 0 2.239 0 5v30c0 2.761 2.239 5 5 5h125c2.761 0 5-2.239 5-5V5c0-2.761-2.239-5-5-5z"/>
        <path fill="#FFF" d="M68.14 21.75c-2.353.006-4.256 1.917-4.25 4.27.006 2.353 1.917 4.255 4.27 4.25 2.353-.006 4.256-1.917 4.25-4.27.016-1.136-.429-2.23-1.234-3.03-.805-.802-1.9-1.242-3.036-1.22zm0 6.83c-1.057.074-2.051-.506-2.508-1.462-.457-.955-.283-2.093.439-2.869.721-.776 1.844-1.031 2.83-.645.987.387 1.636 1.337 1.639 2.396.033.663-.204 1.31-.656 1.796-.452.486-1.08.769-1.744.784zm-9.32-6.83c-2.353.006-4.256 1.917-4.25 4.27.006 2.353 1.917 4.255 4.27 4.25 2.353-.006 4.256-1.917 4.25-4.27.016-1.136-.429-2.23-1.234-3.03-.805-.802-1.9-1.242-3.036-1.22zm0 6.83c-1.057.074-2.051-.506-2.508-1.462-.457-.955-.283-2.093.439-2.869.721-.776 1.844-1.031 2.83-.645.987.387 1.636 1.337 1.639 2.396.033.663-.204 1.31-.656 1.796-.452.486-1.08.769-1.744.784zm-11.08-5.52v1.8h4.32c-.068.848-.42 1.648-1 2.27-.876.893-2.09 1.373-3.34 1.32-2.651 0-4.8-2.149-4.8-4.8s2.149-4.8 4.8-4.8c1.22-.018 2.399.445 3.28 1.29l1.27-1.27c-1.204-1.19-2.837-1.847-4.53-1.82-2.421-.094-4.7 1.144-5.938 3.226-1.239 2.082-1.239 4.676 0 6.758 1.238 2.082 3.517 3.32 5.938 3.226 1.73.07 3.408-.604 4.61-1.85 1.05-1.154 1.61-2.67 1.56-4.23.004-.375-.027-.75-.09-1.12h-6.08zm45.31 1.4c-.534-1.57-1.982-2.649-3.64-2.71-1.106-.002-2.163.453-2.92 1.259-.758.805-1.15 1.888-1.08 2.991-.018 1.875 1.201 3.537 2.994 4.085 1.793.548 3.733-.15 4.766-1.715l-1.45-1c-.44.733-1.235 1.178-2.09 1.17-.887.037-1.706-.476-2.06-1.29l5.69-2.35-.21-.44zm-5.8 1.42c-.04-.626.173-1.243.592-1.71.42-.467 1.01-.744 1.638-.77.656-.042 1.275.312 1.57.9l-3.8 1.58zM82.63 30h1.87V17.5h-1.87V30zm-3.06-7.3h-.07c-.574-.625-1.391-.972-2.24-.95-2.27.11-4.054 1.982-4.054 4.255 0 2.273 1.784 4.145 4.054 4.255.858.017 1.68-.35 2.24-1h.07v.61c0 1.63-.87 2.5-2.27 2.5-.956-.021-1.806-.617-2.15-1.51l-1.62.67c.613 1.54 2.113 2.542 3.77 2.52 2.19 0 4-1.29 4-4.43V22h-1.73v.7zm-2.15 5.88c-1.36-.085-2.42-1.212-2.42-2.575 0-1.363 1.06-2.49 2.42-2.575.647.028 1.255.317 1.685.802.43.484.644 1.122.595 1.768.055.648-.157 1.29-.588 1.778-.43.487-1.042.777-1.692.802zm24.39-11.08h-4.48V30h1.87v-4.74h2.61c1.453.104 2.842-.611 3.6-1.855s.758-2.806 0-4.05c-.758-1.244-2.147-1.96-3.6-1.855zm0 6H99.2v-4.26h2.65c1.182 0 2.14.958 2.14 2.14 0 1.182-.958 2.14-2.14 2.14l-.04-.02zm11.54-1.79c-1.392-.086-2.701.665-3.33 1.91l1.65.69c.34-.614 1.01-.97 1.71-.91.48-.056.961.083 1.338.386.376.302.614.744.662 1.224v.12c-.601-.316-1.27-.48-1.95-.48-1.78 0-3.6 1-3.6 2.82.036.782.387 1.515.973 2.034.586.518 1.357.776 2.137.716.955.053 1.865-.413 2.38-1.22h.06v1h1.8v-4.81c0-2.19-1.66-3.46-3.79-3.46l-.04-.02zm-.23 6.85c-.61 0-1.46-.31-1.46-1.06 0-1 1.06-1.34 2-1.34.594-.015 1.181.13 1.7.42-.13 1.123-1.07 1.977-2.2 2l-.04-.02zM123.74 22l-2.14 5.42h-.06L119.32 22h-2l3.33 7.58-1.9 4.21h2L125.82 22h-2.08zm-16.8 8h1.86V17.5h-1.86V30z"/>
        <path fill="url(#prefix__a)" d="M10.44 7.54c-.319.394-.476.894-.44 1.4v22.12c-.034.51.135 1.014.47 1.4l.07.08L22.9 20.15v-.3L10.51 7.47l-.07.07z"/>
        <path fill="url(#prefix__b)" d="M27 24.28l-4.1-4.13v-.3l4.1-4.13.09.06L32 18.56c1.4.79 1.4 2.09 0 2.89l-4.89 2.78-.11.05z"/>
        <path fill="url(#prefix__c)" d="M27.12 24.23L22.9 20 10.44 32.46c.583.519 1.453.548 2.07.07l14.61-8.3"/>
        <path fill="url(#prefix__d)" d="M27.12 15.78l-14.61-8.3c-.613-.485-1.486-.46-2.07.06L22.9 20l4.22-4.22z"/>
        <path fill="#000" d="M27 24.13l-14.49 8.25c-.592.447-1.408.447-2 0l-.07.07.07.08c.592.447 1.408.447 2 0l14.61-8.3-.12-.1z" opacity=".2"/>
        <path fill="#000" d="M10.44 32.32c-.321-.397-.479-.901-.44-1.41v.15c-.034.51.135 1.014.47 1.4l.07-.07-.1-.07zM32 21.3l-5 2.83.09.1L32 21.44c.59-.25.997-.802 1.06-1.44-.127.577-.52 1.06-1.06 1.3z" opacity=".12"/>
        <path fill="#FFF" d="M12.51 7.62L32 18.7c.54.24.933.723 1.06 1.3-.063-.638-.47-1.19-1.06-1.44L12.51 7.48C11.12 6.68 10 7.34 10 8.94v.15c0-1.6 1.12-2.26 2.51-1.47z" opacity=".25"/>
        <path fill="#FFF" stroke="#FFF" stroke-width=".2" d="M42.11 14.27h-.73v-2H42c.565-.613.831-1.443.73-2.27V7h4v5.26h.67v2h-.74V13h-4.55v1.27zM43.5 10c.045.803-.154 1.601-.57 2.29h3V7.74H43.5V10zM53.41 12.22c-.583.584-1.375.912-2.2.912-.825 0-1.617-.328-2.2-.912-.58-.592-.897-1.392-.88-2.22-.02-.827.294-1.627.87-2.22.583-.584 1.375-.912 2.2-.912.825 0 1.617.328 2.2.912.587.588.912 1.389.9 2.22.024.831-.298 1.635-.89 2.22h0zm-3.83-.5c.426.442 1.016.689 1.63.68.615.012 1.206-.235 1.63-.68.452-.456.694-1.079.67-1.72.024-.641-.218-1.264-.67-1.72-.424-.445-1.015-.692-1.63-.68-.614-.009-1.204.238-1.63.68-.445.46-.683 1.08-.66 1.72-.023.64.215 1.26.66 1.72h0zM58.18 13.13c-.818.013-1.605-.309-2.18-.89-.6-.588-.927-1.4-.9-2.24-.02-.834.303-1.64.892-2.23.589-.592 1.394-.917 2.228-.9.848-.024 1.66.345 2.2 1l-.53.52c-.399-.513-1.021-.8-1.67-.77-.622-.016-1.223.227-1.66.67-.465.446-.722 1.066-.71 1.71-.028.645.215 1.272.67 1.73.437.443 1.038.686 1.66.67.706-.003 1.374-.322 1.82-.87l.54.53c-.274.328-.615.594-1 .78-.425.199-.89.298-1.36.29h0zM63.68 13L62.91 13 62.91 7.74 61.23 7.74 61.23 7 65.35 7 65.35 7.74 63.68 7.74zM70.65 7l-2.27 5.06c-.111.41-.398.752-.783.933-.385.18-.83.183-1.217.007l.2-.71c.122.069.26.107.4.11.148.007.295-.031.42-.11.121-.101.215-.232.27-.38l.22-.48L65.87 7h.91l1.48 3.44h0L69.74 7h.91zM71.52 13L71.52 7 75.86 7 75.86 13 75.09 13 75.09 7.74 72.29 7.74 72.29 13zM77.23 13L77.23 7 78 7 78 9.57 81 9.57 81 7 81.78 7 81.78 13 81 13 81 10.29 78 10.29 78 13zM88.06 12.22c-.583.584-1.375.912-2.2.912-.825 0-1.617-.328-2.2-.912-.592-.585-.914-1.389-.89-2.22-.024-.831.298-1.635.89-2.22.582-.583 1.371-.91 2.195-.91.824 0 1.613.327 2.195.91.592.585.914 1.389.89 2.22.027.83-.292 1.634-.88 2.22h0zm-3.83-.5c.424.445 1.015.692 1.63.68.614.009 1.204-.238 1.63-.68.445-.46.683-1.08.66-1.72.023-.64-.215-1.26-.66-1.72-.426-.442-1.016-.689-1.63-.68-.615-.012-1.206.235-1.63.68-.452.456-.694 1.079-.67 1.72-.024.641.218 1.264.67 1.72h0zM92.09 13V7h2.17c.45-.005.885.16 1.22.46.337.294.527.722.52 1.17.002.27-.074.534-.22.76-.148.215-.352.384-.59.49h0c.287.096.538.278.72.52.19.242.293.542.29.85.01.467-.188.914-.54 1.22-.347.323-.806.499-1.28.49l-2.29.04zm.77-3.43h1.4c.265.015.523-.091.7-.29.17-.166.267-.393.27-.63.01-.238-.073-.47-.23-.65-.17-.189-.416-.292-.67-.28h-1.47v1.85zm0 2.69h1.55c.277.01.545-.103.73-.31.173-.184.27-.427.27-.68-.006-.25-.106-.49-.28-.67-.195-.205-.467-.317-.75-.31h-1.52v1.97z"/>
    </g>
</svg>
