<svg xmlns="http://www.w3.org/2000/svg" width="40" height="14" viewBox="0 0 40 14">
    <path d="M25 0v3.377h-3.17V14h-3.66V3.377H15V0h10zm15 8.585c-.918 3.244-3.96 5.466-7.391 5.4-2.657.173-5.19-1.12-6.573-3.352-1.381-2.232-1.381-5.034 0-7.266C27.418 1.135 29.952-.158 32.61.015c3.372-.063 6.375 2.083 7.348 5.25h-3.93c-.727-1.166-2.025-1.87-3.418-1.856-1.366-.088-2.667.577-3.377 1.724-.71 1.148-.71 2.588 0 3.735.71 1.148 2.011 1.813 3.377 1.725 1.456.018 2.804-.754 3.503-2.008H40zm-25 0c-.921 3.25-3.972 5.473-7.41 5.401-2.653.165-5.18-1.13-6.557-3.36-1.377-2.228-1.377-5.024 0-7.253C2.41 1.143 4.937-.15 7.59.014c3.379-.068 6.39 2.078 7.367 5.25H11.01c-.722-1.17-2.024-1.878-3.42-1.856-1.366-.088-2.669.577-3.38 1.725-.71 1.148-.71 2.588 0 3.735.711 1.148 2.014 1.813 3.38 1.726 1.458.022 2.809-.752 3.506-2.008H15z"/>
</svg>
