<svg xmlns="http://www.w3.org/2000/svg" width="82" height="29" viewBox="0 0 82 29">
    <path fill="#FED444" d="M50.95.032V6.91h-6.194v21.638h-7.155V6.91h-6.193V.032H50.95zM82 17.784c-1.823 6.72-7.863 11.322-14.677 11.184-5.275.358-10.307-2.318-13.051-6.942-2.744-4.625-2.744-10.427 0-15.052 2.744-4.624 7.776-7.3 13.051-6.942 6.696-.13 12.66 4.313 14.592 10.874H74.11c-1.443-2.415-4.02-3.875-6.787-3.845-2.712-.182-5.297 1.195-6.706 3.572-1.41 2.377-1.41 5.36 0 7.737s3.994 3.754 6.706 3.572c2.892.038 5.568-1.561 6.957-4.158H82zm-52.232 0c-1.828 6.728-7.882 11.332-14.705 11.184-5.265.34-10.28-2.34-13.013-6.957-2.733-4.617-2.733-10.405 0-15.022C4.784 2.372 9.798-.31 15.063.032c6.705-.141 12.682 4.304 14.62 10.874H21.85c-1.433-2.426-4.018-3.89-6.787-3.845-2.712-.182-5.297 1.195-6.707 3.572-1.41 2.377-1.41 5.36 0 7.737s3.995 3.754 6.707 3.572c2.894.046 5.574-1.556 6.956-4.158h7.749z"/>
</svg>
