<svg xmlns="http://www.w3.org/2000/svg" width="80" height="58" viewBox="0 0 80 58">
    <g fill="none">
        <path stroke="#FFF" stroke-width="3.2" d="M1.6 1.6H78.39999999999999V49.956H1.6z" opacity=".247"/>
        <rect width="48" height="3.222" x="16" y="54.778" fill="#FFF" opacity=".247" rx="1.6"/>
        <path fill="#FFF" d="M45.047 19.35v3.438h-3.141v10.82h-3.63v-10.82h-3.142V19.35h9.913zM60.8 28.224c-.925 3.36-3.99 5.661-7.446 5.592-2.676.18-5.229-1.159-6.621-3.47-1.392-2.313-1.392-5.214 0-7.526 1.392-2.313 3.945-3.65 6.621-3.472 3.397-.065 6.422 2.157 7.403 5.437h-3.96c-.732-1.207-2.04-1.937-3.443-1.922-1.376-.091-2.687.597-3.402 1.786-.715 1.189-.715 2.68 0 3.868.715 1.189 2.026 1.877 3.402 1.787 1.467.018 2.825-.781 3.53-2.08H60.8zm-26.498 0c-.928 3.365-3.999 5.666-7.46 5.592-2.671.17-5.215-1.17-6.602-3.478-1.387-2.309-1.387-5.203 0-7.511 1.387-2.309 3.93-3.65 6.602-3.479 3.401-.07 6.433 2.152 7.417 5.437h-3.974c-.727-1.212-2.038-1.945-3.443-1.922-1.376-.091-2.688.597-3.403 1.786-.715 1.189-.715 2.68 0 3.868.715 1.189 2.027 1.877 3.403 1.787 1.468.022 2.827-.779 3.529-2.08h3.93z" opacity=".502"/>
    </g>
</svg>
