<svg xmlns="http://www.w3.org/2000/svg" width="100" height="72" viewBox="0 0 100 72">
    <g fill="none">
        <path stroke="#FFF" stroke-width="4" d="M98 2H2v60h96V2z" opacity=".247"/>
        <path fill="#FFF" d="M21.6 68h56.8c.884 0 1.6.716 1.6 1.6v.8c0 .884-.716 1.6-1.6 1.6H21.6c-.884 0-1.6-.716-1.6-1.6v-.8c0-.884.716-1.6 1.6-1.6z" opacity=".247"/>
        <path fill="#FFF" d="M55.608 25.015v3.32h-3.235v10.447h-3.736V28.336h-3.234v-3.32h10.205zm16.216 8.57c-.953 3.244-4.107 5.466-7.665 5.4-2.755.173-5.383-1.12-6.816-3.352-1.433-2.232-1.433-5.034 0-7.266s4.06-3.525 6.816-3.352c3.497-.063 6.61 2.083 7.62 5.25h-4.076c-.754-1.166-2.1-1.87-3.544-1.856-1.416-.088-2.766.577-3.503 1.724-.736 1.148-.736 2.588 0 3.735.737 1.148 2.087 1.813 3.503 1.725 1.51.018 2.908-.754 3.633-2.008h4.032zm-27.278 0c-.955 3.249-4.116 5.471-7.68 5.4-2.75.164-5.368-1.13-6.795-3.359-1.428-2.229-1.428-5.023 0-7.252 1.427-2.23 4.046-3.523 6.795-3.359 3.502-.068 6.623 2.078 7.636 5.25H40.41c-.749-1.171-2.098-1.878-3.545-1.856-1.416-.088-2.766.577-3.502 1.724-.736 1.148-.736 2.588 0 3.735.736 1.148 2.086 1.813 3.502 1.725 1.512.022 2.911-.751 3.633-2.008h4.047z" opacity=".502"/>
    </g>
</svg>
