<svg xmlns="http://www.w3.org/2000/svg" xmlns:xlink="http://www.w3.org/1999/xlink" width="20" height="20" viewBox="0 0 20 20">
    <defs>
        <path id="prefix__a" d="M8 .5c4.142 0 7.5 3.358 7.5 7.5 0 4.142-3.358 7.5-7.5 7.5C3.858 15.5.5 12.142.5 8 .5 3.858 3.858.5 8 .5zm0 1.25c-1.658 0-3.247.658-4.42 1.83C2.409 4.754 1.75 6.343 1.75 8s.658 3.247 1.83 4.42c1.173 1.172 2.762 1.83 4.42 1.83s3.247-.658 4.42-1.83c1.172-1.173 1.83-2.762 1.83-4.42s-.658-3.247-1.83-4.42C11.246 2.409 9.657 1.75 8 1.75zm0 8.75c.221 0 .433.088.59.244.156.156.243.368.243.59 0 .22-.087.432-.244.589-.156.156-.368.244-.589.244-.221 0-.433-.088-.59-.244-.156-.157-.243-.369-.243-.59 0-.22.087-.433.244-.589.156-.156.368-.244.589-.244zm0-6.667c.221 0 .433.103.59.285.13.152.212.35.236.56l.007.128v3.888c0 .258-.087.506-.244.688-.156.182-.368.285-.589.285-.221 0-.433-.103-.59-.285-.13-.152-.212-.35-.236-.56l-.007-.128V4.806c0-.258.087-.506.244-.688.156-.182.368-.285.589-.285z"/>
    </defs>
    <g fill="none" fill-rule="evenodd" transform="translate(2 2)">
        <mask id="prefix__b" fill="#fff">
            <use xlink:href="#prefix__a"/>
        </mask>
        <use fill="#000" xlink:href="#prefix__a"/>
        <g fill="#CE2226" fill-rule="nonzero" mask="url(#prefix__b)">
            <path d="M0 0H20V20H0z" transform="translate(-2 -2)"/>
        </g>
    </g>
</svg>
