<?xml version="1.0" encoding="utf-8"?>
<!-- Generator: Adobe Illustrator 23.0.0, SVG Export Plug-In . SVG Version: 6.00 Build 0)  -->
<svg version="1.1" id="Layer_1" xmlns="http://www.w3.org/2000/svg" xmlns:xlink="http://www.w3.org/1999/xlink" x="0px" y="0px"
	 viewBox="0 0 512 360" style="enable-background:new 0 0 512 360;" xml:space="preserve">
<path d="M452,0H60C26.9,0,0,26.9,0,60v240c0,33.1,26.9,60,60,60h392c33.1,0,60-26.9,60-60V60C512,26.9,485.1,0,452,0z M60,40h392
	c11,0,20,9,20,20v20H40V60C40,49,49,40,60,40z M452,320H60c-11,0-20-9-20-20V120h432v180C472,311,463,320,452,320z M442,265
	c0,13.8-11.2,25-25,25s-25-11.2-25-25s11.2-25,25-25S442,251.2,442,265z M372,265c0,13.8-11.2,25-25,25s-25-11.2-25-25
	s11.2-25,25-25S372,251.2,372,265z"/>
</svg>
