<?xml version="1.0" encoding="utf-8"?>
<!-- Generator: Adobe Illustrator 23.0.0, SVG Export Plug-In . SVG Version: 6.00 Build 0)  -->
<svg version="1.1" id="Layer_1" xmlns="http://www.w3.org/2000/svg" xmlns:xlink="http://www.w3.org/1999/xlink" x="0px" y="0px"
	 viewBox="0 0 40 280.1" style="enable-background:new 0 0 40 280.1;" xml:space="preserve">
<style type="text/css">
	.st0{fill:#B2B2B2;}
	.st1{fill:url(#SVGID_1_);}
	.st2{fill:url(#SVGID_2_);}
	.st3{fill:url(#SVGID_3_);}
	.st4{fill:url(#SVGID_4_);}
	.st5{fill:url(#path10_1_);}
	.st6{fill:#4DB35E;}
	.st7{fill:#F16623;}
	.st8{fill:#E31F27;}
	.st9{fill:#F89E1E;}
	.st10{fill:#FFFFFF;}
	.st11{fill:url(#SVGID_5_);}
	.st12{fill:url(#SVGID_6_);}
	.st13{fill:url(#SVGID_7_);}
	.st14{fill:#3498D8;}
	.st15{fill:#004A97;}
</style>
<path class="st0" d="M26.9,13.7H13.1c-1.2,0-2.1,0.9-2.1,2.1v8.4c0,1.2,0.9,2.1,2.1,2.1h13.8c1.2,0,2.1-0.9,2.1-2.1v-8.4
	C29,14.6,28.1,13.7,26.9,13.7z M13.1,15.1h13.8c0.4,0,0.7,0.3,0.7,0.7v0.7H12.4v-0.7C12.4,15.4,12.7,15.1,13.1,15.1z M26.9,24.9
	H13.1c-0.4,0-0.7-0.3-0.7-0.7v-6.3h15.2v6.3C27.6,24.6,27.3,24.9,26.9,24.9z M26.5,23c0,0.5-0.4,0.9-0.9,0.9s-0.9-0.4-0.9-0.9
	s0.4-0.9,0.9-0.9S26.5,22.5,26.5,23z M24.1,23c0,0.5-0.4,0.9-0.9,0.9s-0.9-0.4-0.9-0.9s0.4-0.9,0.9-0.9S24.1,22.5,24.1,23z"/>
<g>
	<g>
		<path class="st0" d="M11.6,68.3h16.7c0.4,0,0.6-0.3,0.6-0.6V53.5c0-0.4-0.3-0.6-0.6-0.6h-3.1v-0.5c0-0.4-0.3-0.6-0.6-0.6
			c-0.4,0-0.6,0.3-0.6,0.6v0.5h-7.8v-0.5c0-0.4-0.3-0.6-0.6-0.6c-0.4,0-0.6,0.3-0.6,0.6v0.5h-3.3c-0.4,0-0.6,0.3-0.6,0.6v14.2
			C11,68,11.3,68.3,11.6,68.3z M12.3,54.1h2.6v0.3c0,0.4,0.3,0.6,0.6,0.6s0.6-0.3,0.6-0.6v-0.3H24v0.3c0,0.4,0.3,0.6,0.6,0.6
			s0.6-0.3,0.6-0.6v-0.3h2.5v1.6H12.3C12.3,55.8,12.3,54.1,12.3,54.1z M12.3,57h15.5v10H12.3C12.3,67.1,12.3,57,12.3,57z"/>
		<path class="st0" d="M24.6,60h-9.1c-0.4,0-0.6,0.3-0.6,0.6c0,0.4,0.3,0.6,0.6,0.6h9.1c0.4,0,0.6-0.3,0.6-0.6
			C25.2,60.2,24.9,60,24.6,60z"/>
		<path class="st0" d="M20,63h-4.6c-0.4,0-0.6,0.3-0.6,0.6c0,0.4,0.3,0.6,0.6,0.6H20c0.4,0,0.6-0.3,0.6-0.6C20.7,63.3,20.4,63,20,63
			z"/>
	</g>
</g>
<g>
	<path class="st0" d="M24.5,97.9h-1.1v-2.6c0-1.8-1.5-3.3-3.4-3.3s-3.4,1.5-3.4,3.3v2.6h-1.1c-1,0-1.9,0.8-1.9,1.9v6.4
		c0,1,0.8,1.9,1.9,1.9h9c1,0,1.9-0.8,1.9-1.9v-6.4C26.4,98.7,25.5,97.9,24.5,97.9z M17.9,95.3c0-1.1,1-2.1,2.1-2.1s2.1,0.9,2.1,2.1
		v2.6h-4.3v-2.6H17.9z M25.1,106.1c0,0.3-0.3,0.6-0.6,0.6h-9c-0.3,0-0.6-0.3-0.6-0.6v-6.4c0-0.3,0.3-0.6,0.6-0.6h9
		c0.3,0,0.6,0.3,0.6,0.6V106.1z"/>
	<path class="st0" d="M20,100.9L20,100.9c-0.6,0-1.2,0.5-1.2,1.2l0,0c0,0.4,0.2,0.8,0.5,1v1.4c0,0.3,0.3,0.6,0.6,0.6
		c0.3,0,0.6-0.3,0.6-0.6v-1.4c0.3-0.2,0.5-0.6,0.5-1l0,0C21.2,101.5,20.6,100.9,20,100.9z"/>
</g>
<path class="st0" d="M22.7,139.9c1-0.8,1.7-2.1,1.7-3.5c0-2.4-2-4.4-4.4-4.4s-4.4,2-4.4,4.4c0,1.4,0.7,2.7,1.7,3.5
	c-2.5,1.1-4.3,3.6-4.3,6.5v1c0,0.4,0.3,0.7,0.7,0.7h12.5c0.4,0,0.7-0.3,0.7-0.7v-1C27,143.4,25.2,140.9,22.7,139.9z M17,136.4
	c0-1.6,1.3-3,3-3s3,1.3,3,3s-1.3,3-3,3S17,138,17,136.4z M25.5,146.6h-11v-0.3c0-3,2.5-5.5,5.5-5.5s5.5,2.5,5.5,5.5V146.6z"/>
<g>
	
		<linearGradient id="SVGID_1_" gradientUnits="userSpaceOnUse" x1="234.9432" y1="1709.2218" x2="274.3403" y2="1699.912" gradientTransform="matrix(1 0 0 1 -234.5 -1515.2795)">
		<stop  offset="0" style="stop-color:#292E6D"/>
		<stop  offset="0.8041" style="stop-color:#2A469C"/>
	</linearGradient>
	<polygon class="st1" points="14.1,196 17.3,196 19.4,184.2 16.1,184.2 	"/>
	
		<linearGradient id="SVGID_2_" gradientUnits="userSpaceOnUse" x1="235.3516" y1="1710.9786" x2="274.7858" y2="1701.6599" gradientTransform="matrix(1 0 0 1 -234.5 -1515.2795)">
		<stop  offset="0" style="stop-color:#292E6D"/>
		<stop  offset="0.8041" style="stop-color:#2A469C"/>
	</linearGradient>
	<path class="st2" d="M24.1,187.5c0-1.3,2.7-1.3,4.6-0.4l0.4-2.6c-3.4-1.2-8.3-0.2-8.4,3.4c0,3,4.5,3.2,4.5,4.7
		c0,0.8-1.3,1.9-5.4,0.3l-0.5,2.6c3.2,1.4,9.2,0.7,9.2-3.4C28.6,189.1,24,188.9,24.1,187.5z"/>
	
		<linearGradient id="SVGID_3_" gradientUnits="userSpaceOnUse" x1="236.0497" y1="1713.8152" x2="275.4643" y2="1704.501" gradientTransform="matrix(1 0 0 1 -234.5 -1515.2795)">
		<stop  offset="0" style="stop-color:#292E6D"/>
		<stop  offset="0.8041" style="stop-color:#2A469C"/>
	</linearGradient>
	<path class="st3" d="M37.4,184.2h-2.5c-2.2,0-1.3,1.1-6.5,11.8h3.4c0,0,0.6-1.5,0.7-1.8c0.4,0,3.7,0,4.1,0c0.1,0.4,0.4,1.8,0.4,1.8
		h3L37.4,184.2z M33.4,191.8c0.3-0.7,1.6-4,1.7-4.4c1.3,6.1,0.9,4,1,4.4H33.4z"/>
	
		<linearGradient id="SVGID_4_" gradientUnits="userSpaceOnUse" x1="234.2696" y1="1706.574" x2="273.7574" y2="1697.2427" gradientTransform="matrix(1 0 0 1 -234.5 -1515.2795)">
		<stop  offset="0" style="stop-color:#292E6D"/>
		<stop  offset="0.8041" style="stop-color:#2A469C"/>
	</linearGradient>
	<path class="st4" d="M11.4,184.2l-3.2,8c-1.6-7.9-1.4-8-2.9-8.1H0l0,0.2c1.3,0.3,2.4,0.7,3.4,1.3L6.3,196l3.4,0l5.1-11.8H11.4z"/>
</g>
<g>
	
		<linearGradient id="path10_1_" gradientUnits="userSpaceOnUse" x1="440.145" y1="-551.5715" x2="451.9995" y2="-551.5715" gradientTransform="matrix(1 0 0 -1 -412 -344.7205)">
		<stop  offset="0" style="stop-color:#01B3E4"/>
		<stop  offset="1" style="stop-color:#0A8CC9"/>
	</linearGradient>
	<path id="path10" class="st5" d="M35.8,204.4h-7.7c0.4,2.5,2.9,4.9,5.6,4.9h6.1C40.5,207.4,38.8,204.4,35.8,204.4z"/>
	<path id="path12" class="st6" d="M28.8,209.7v6.1h3.7v-3.3c1.3-0.2,6,1.1,7.2-2.9L28.8,209.7L28.8,209.7z"/>
	<path id="path14" class="st6" d="M15.6,204.4v11.5c2.7,0,3.9,0.3,4.5-0.8c2.2-4.4,2.9-5.7,2.9-5.7h0.4v6.5h3.7v-11.5
		c-2.9,0.1-3.9-0.3-4.5,0.8c-1.9,3.8-2.9,5.7-2.9,5.7h-0.4v-6.5C19.4,204.4,15.6,204.4,15.6,204.4z"/>
	<path id="path16" class="st6" d="M0,215.8v-11.5c3.4,0,4.6-0.5,5.4,1.6c1.5,4.3,1.6,4.9,1.6,4.9s0.3-1.1,1.6-4.9
		c0.7-2.1,1.7-1.6,5.4-1.6v11.5h-3.7v-6.1H9.9l-2.1,6.1H6.2l-2.1-6.1H3.7v6.1H0z"/>
</g>
<g>
	<rect x="15.6" y="162.2" class="st7" width="8.7" height="15.7"/>
	<path class="st8" d="M16.2,170.1c0-3.2,1.5-6,3.8-7.9c-6.5-5.1-16.2-0.6-16.2,7.9c0,8.4,9.7,12.9,16.2,7.9
		C17.7,176.1,16.2,173.3,16.2,170.1"/>
	<path class="st9" d="M36.2,170.1c0,8.4-9.7,12.9-16.2,7.9c5.1-4,5.1-11.7,0-15.7C26.5,157.2,36.2,161.7,36.2,170.1"/>
</g>
<g id="Layer_x0020_1">
	<path class="st10" d="M31.5,255.5c0,2-1.6,3.6-3.6,3.6H8.5v-14.4c0-2,1.6-3.6,3.6-3.6h19.4V255.5L31.5,255.5z"/>
	
		<linearGradient id="SVGID_5_" gradientUnits="userSpaceOnUse" x1="-717.8527" y1="995.5536" x2="-715.6254" y2="995.5536" gradientTransform="matrix(2.8346 0 0 2.8346 2058.7341 -2571.8826)">
		<stop  offset="0" style="stop-color:#007C40"/>
		<stop  offset="1" style="stop-color:#56B247"/>
	</linearGradient>
	<path class="st11" d="M26.5,250.4c1.3,0,1.1,1.4,0.3,1.4h-1.6v-1.4H26.5z M26.5,249.6h-1.4v-1.3c0.6,0,1.5,0,1.4,0
		C27.4,248.4,27.4,249.6,26.5,249.6z M30.2,255.3c0,1.6-1.2,2.6-2.5,2.6h-3.8v-5.3c0.9,0,4,0,3.8,0c2.4,0,2.4-2.6,0.3-2.6l0,0
		c1.4,0,1.3-2.4-0.1-2.4h-4.1v-2.6c0-2.2,1.5-2.7,2-2.7h4.3C30.2,242.3,30.2,255.2,30.2,255.3z"/>
	
		<linearGradient id="SVGID_6_" gradientUnits="userSpaceOnUse" x1="-722.8383" y1="995.5461" x2="-720.6152" y2="995.5461" gradientTransform="matrix(2.8346 0 0 2.8346 2058.7341 -2571.8826)">
		<stop  offset="0" style="stop-color:#2A2F6E"/>
		<stop  offset="1" style="stop-color:#0E6EB6"/>
	</linearGradient>
	<path class="st12" d="M9.8,251.3v-6.4c0-2.9,3.6-2.6,3.8-2.6c0,0,2.5,0,2.5,0v12.9c0,1.8-1.4,2.7-2.8,2.7s-3.6,0-3.6,0v-5.5
		c4.1,0.8,5.7,0,5.8-2v-2.8h-2.2c0,0,0,2.1,0,2.8C13.4,252.3,11.4,252.1,9.8,251.3z"/>
	
		<linearGradient id="SVGID_7_" gradientUnits="userSpaceOnUse" x1="-720.3492" y1="995.5439" x2="-718.1157" y2="995.5439" gradientTransform="matrix(2.8346 0 0 2.8346 2058.7341 -2571.8826)">
		<stop  offset="0" style="stop-color:#6E2B30"/>
		<stop  offset="1" style="stop-color:#E11D3A"/>
	</linearGradient>
	<path class="st13" d="M16.8,248.3c0,0,0-2,0-3c0-0.1-0.2-3,2.6-3c0.5,0,3.7,0,3.7,0v12.6c0,0,0.3,2.8-2.8,2.9h-3.5v-6
		c1.5,1.3,3.7,0.9,5.6,0.5v-1.1c-1.3,0.6-2.4,0.7-3.2,0.4c-0.7-0.3-1.2-1.3-0.8-2.4c0.7-1.6,3-1,4-0.5v-1.1
		C18.9,247,17.3,247.9,16.8,248.3z"/>
</g>
<g id="E-Com">
	<g id="Amex_3_">
		<g id="Amex">
			<g>
				<path class="st14" d="M35.7,221H4.3C3,221,2,222,2,223.2v13.6c0,1.2,1,2.2,2.2,2.2h31.5c1.2,0,2.2-1,2.2-2.2v-13.6
					C38,222,37,221,35.7,221z"/>
			</g>
		</g>
		<g id="Amex_1_">
			<g>
				<path class="st10" d="M9.6,230.4h1.8l-0.9-2.2L9.6,230.4z M34.6,226.2H30l-1.1,1.2l-1-1.2h-9.8l-0.9,2l-0.9-2h-3.9v0.9l-0.4-0.9
					H8.6L5.3,234h3.9l0.4-1.2h1.1l0.4,1.2h4.4v-0.9L16,234h2.2l0.3-1v1h9l1.1-1.2l1,1.2h4.6l-2.9-3.9L34.6,226.2z M19.8,232.9v-4.4
					l-1.9,4.4h-1.1l-1.9-4.4v4.4h-2.6l-0.4-1.2H9.1l-0.4,1.2H7.2l2.4-5.6h1.9l2.1,5.3v-5.3h2.1l1.7,3.8l1.6-3.8h2.1v5.6
					C21.1,232.9,19.7,232.9,19.8,232.9z M32.2,232.9h-1.7L29,231l-1.7,1.9h-5.1v-5.6h5.2l1.6,1.8l1.7-1.8h1.6l-2.5,2.8L32.2,232.9z
					 M23.5,229.4h2.8v1.1h-2.8v1.1h3.1l1.5-1.7l-1.3-1.6h-3.3C23.5,228.5,23.5,229.5,23.5,229.4z"/>
			</g>
		</g>
	</g>
</g>
<g>
	<path class="st15" d="M22.1,280.1c5.4,0,10.4-4.5,10.4-9.9c0-6-4.9-10.1-10.4-10.1h-4.7c-5.5,0-10,4.1-10,10.1
		c0,5.5,4.5,9.9,10,9.9H22.1z"/>
	<path class="st10" d="M19.6,275.5v-10.8C24.5,266.6,24.5,273.6,19.6,275.5 M15.5,264.7v10.8C10.6,273.6,10.5,266.6,15.5,264.7z
		 M17.5,260.9c-5,0-9.1,4.1-9.1,9.2c0,5.1,4.1,9.2,9.1,9.2c5,0,9.1-4.1,9.1-9.2C26.6,265,22.5,260.9,17.5,260.9"/>
</g>
</svg>
