<?xml version="1.0" encoding="utf-8"?>
<!-- Generator: Adobe Illustrator 16.0.0, SVG Export Plug-In . SVG Version: 6.00 Build 0)  -->
<!DOCTYPE svg PUBLIC "-//W3C//DTD SVG 1.1//EN" "http://www.w3.org/Graphics/SVG/1.1/DTD/svg11.dtd">
<svg version="1.1" id="Layer_1" xmlns="http://www.w3.org/2000/svg" xmlns:xlink="http://www.w3.org/1999/xlink" x="0px" y="0px"
	 width="162px" height="468px" viewBox="0 0 162 468" enable-background="new 0 0 162 468" xml:space="preserve">
<g>
	<path fill="#FFFFFF" d="M0,0v110h110V0H0z M105.57,105.571H4.429V4.429H105.57V105.571z"/>
	<polygon fill="#FFFFFF" points="32.32,86.251 32.32,101.137 39.333,101.137 39.353,73.086 39.333,73.107 39.333,73.086 
		24.307,83.105 9.279,73.086 9.279,81.101 24.307,92.121 	"/>
	<polygon fill="#FFFFFF" points="16.292,88.254 9.279,83.105 9.279,101.137 16.292,101.137 	"/>
	<polygon fill="#FFFFFF" points="55.361,89.917 51.354,82.444 41.337,101.137 49.35,101.137 	"/>
	<polygon fill="#FFFFFF" points="56.443,91.62 52.697,98.632 62.033,98.632 63.375,101.137 71.389,101.137 56.363,73.086 
		52.355,80.561 58.286,91.62 	"/>
	<path fill="#FFFFFF" d="M85.675,73.087h-3.267V80.1h3.267c2.32,0,2.308,3.506,0,3.506h-3.267v7.012h3.267
		C97.286,90.618,97.294,73.087,85.675,73.087z"/>
	<rect x="73.392" y="73.086" fill="#FFFFFF" width="7.014" height="28.05"/>
	<polygon fill="#FFFFFF" points="2.814,116.074 1.53,113.573 0.771,113.573 2.471,116.713 2.471,118.495 3.133,118.495 
		3.133,116.764 4.859,113.573 4.099,113.573 	"/>
	<path fill="#FFFFFF" d="M6.18,114.1c-0.947,1.049-0.984,4.464,1.401,4.464c2.552,0,2.307-3.551,1.452-4.466
		C8.303,113.323,6.928,113.271,6.18,114.1z M8.927,116.473c0,0.863-0.473,1.547-1.345,1.547c-1.495,0-1.241-1.942-1.274-2.429
		c0-2.127,2.62-2.017,2.62,0v0.882H8.927z"/>
	<path fill="#FFFFFF" d="M12.642,118.043c-1.643,0-1.088-1.996-1.156-4.471H10.82c0.104,2.556-0.622,4.993,1.822,4.993
		c1.087,0,1.886-0.616,1.886-1.723v-3.27h-0.666C13.627,115.635,14.553,118.043,12.642,118.043z"/>
	<path fill="#FFFFFF" d="M18.496,116.082c0.489-0.213,0.774-0.586,0.774-1.106c0-1.769-1.993-1.338-3.342-1.399v4.918h0.666v-2.133
		c0.546,0.095,1.997-0.373,1.997,0.886v0.45c0,0.251,0.017,0.631,0.207,0.798h0.686v-0.081
		C18.923,117.894,19.758,116.491,18.496,116.082z M16.594,115.838v-1.74c0.868,0.041,2.01-0.24,2.01,0.872
		C18.604,116.142,17.327,115.762,16.594,115.838z"/>
	<polygon fill="#FFFFFF" points="22.743,118.495 23.41,118.495 23.41,116.317 25.483,116.317 25.483,115.793 23.41,115.793 
		23.41,114.098 25.829,114.098 25.829,113.573 22.743,113.573 	"/>
	<rect x="26.976" y="113.573" fill="#FFFFFF" width="0.668" height="4.922"/>
	<polygon fill="#FFFFFF" points="32.266,117.321 32.246,117.328 29.877,113.573 29.211,113.573 29.211,118.495 29.877,118.495 
		29.877,114.743 29.897,114.736 32.266,118.495 32.932,118.495 32.932,113.573 32.266,113.573 	"/>
	<path fill="#FFFFFF" d="M35.836,113.573l-1.774,4.922h0.679l0.439-1.269h1.852l0.433,1.269h0.679l-1.737-4.922H35.836z
		 M35.374,116.668l0.733-2.112h0.021l0.716,2.112H35.374z"/>
	<polygon fill="#FFFFFF" points="42.269,117.321 42.248,117.328 39.879,113.573 39.213,113.573 39.213,118.495 39.879,118.495 
		39.879,114.743 39.899,114.736 42.269,118.495 42.935,118.495 42.935,113.573 42.269,113.573 	"/>
	<path fill="#FFFFFF" d="M46.142,114.026c0.758,0,1.163,0.446,1.163,1.119h0.639l0.007-0.021c0.031-1.731-2.225-2.092-3.168-1.029
		c-0.918,1.035-0.962,4.468,1.36,4.468c1.026,0,1.829-0.642,1.808-1.625l-0.007-0.021h-0.639c0,0.683-0.398,1.126-1.163,1.126
		C44.403,118.043,44.459,114.026,46.142,114.026z"/>
	<rect x="49.229" y="113.573" fill="#FFFFFF" width="0.669" height="4.922"/>
	<path fill="#FFFFFF" d="M52.871,113.573l-1.774,4.922h0.679l0.439-1.269h1.853l0.432,1.269h0.68l-1.737-4.922H52.871z
		 M52.407,116.668l0.733-2.112h0.021l0.716,2.112H52.407z"/>
	<polygon fill="#FFFFFF" points="56.914,113.573 56.248,113.573 56.248,118.495 59.312,118.495 59.312,117.974 56.914,117.974 	"/>
	<polygon fill="#FFFFFF" points="62.016,114.098 63.617,114.098 63.617,118.495 64.283,118.495 64.283,114.098 65.905,114.098 
		65.905,113.573 62.016,113.573 	"/>
	<polygon fill="#FFFFFF" points="67.617,116.212 69.637,116.212 69.637,115.69 67.617,115.69 67.617,114.098 69.944,114.098 
		69.944,113.573 66.952,113.573 66.952,118.495 69.982,118.495 69.982,117.974 67.617,117.974 	"/>
	<path fill="#FFFFFF" d="M73.988,115.145h0.638l0.008-0.021c0.037-2.186-3.694-2.315-3.694,0.473
		c0.048,0.542-0.203,1.556,0.526,2.375c0.996,1.124,3.197,0.594,3.168-1.034l-0.008-0.021h-0.638c0,0.692-0.406,1.126-1.161,1.126
		c-1.408,0-1.188-1.939-1.221-2.453C71.606,113.529,73.988,113.61,73.988,115.145z"/>
	<polygon fill="#FFFFFF" points="78.9,115.798 76.511,115.798 76.511,113.573 75.845,113.573 75.845,118.495 76.511,118.495 
		76.511,116.32 78.9,116.32 78.9,118.495 79.566,118.495 79.566,113.573 78.9,113.573 	"/>
	<polygon fill="#FFFFFF" points="84.116,117.321 84.096,117.328 81.727,113.573 81.061,113.573 81.061,118.495 81.727,118.495 
		81.727,114.743 81.747,114.736 84.116,118.495 84.781,118.495 84.781,113.573 84.116,113.573 	"/>
	<path fill="#FFFFFF" d="M88.027,113.502c-2.362,0-1.895,2.869-1.939,2.97c0,2.844,3.95,2.745,3.95,0
		C90.003,116.337,90.445,113.502,88.027,113.502z M89.371,116.473c0,2.028-2.618,2.125-2.618,0c0.046-0.125-0.346-2.423,1.274-2.423
		C89.727,114.05,89.318,116.213,89.371,116.473z"/>
	<polygon fill="#FFFFFF" points="92.01,113.573 91.346,113.573 91.346,118.495 94.409,118.495 94.409,117.974 92.01,117.974 	"/>
	<path fill="#FFFFFF" d="M95.621,114.1c-0.745,0.825-0.484,1.784-0.538,2.372c0,2.099,2.271,2.689,3.392,1.497
		c0.705-0.75,0.531-2.088,0.561-2.372C99.033,113.508,96.695,112.91,95.621,114.1z M98.366,116.473c0,1.646-1.622,1.922-2.271,1.115
		c-0.468-0.583-0.837-3.538,0.928-3.538C98.719,114.05,98.314,116.218,98.366,116.473z"/>
	<path fill="#FFFFFF" d="M102.098,116.554h1.113v1.109c-0.538,0.676-2.367,0.589-2.367-1.123c0.061-0.338-0.355-2.514,1.254-2.514
		c0.741,0,1.113,0.476,1.113,1.047h0.639l0.006-0.019c0.025-0.969-0.744-1.552-1.758-1.552c-2.494,0-2.215,3.636-1.365,4.499
		c0.865,0.876,2.617,0.665,3.146-0.169v-1.797H102.1v0.519H102.098z"/>
	<polygon fill="#FFFFFF" points="106.979,116.074 105.693,113.573 104.936,113.573 106.633,116.713 106.633,118.495 
		107.295,118.495 107.295,116.764 109.021,113.573 108.262,113.573 	"/>
</g>
<g>
	<g>
		<circle id="SVGID_1_" fill="#74BF45" cx="50" cy="230" r="50"/>
	</g>
	<g>
		<g>
			<g>
				<defs>
					<circle id="SVGID_2_" cx="50" cy="230" r="50"/>
				</defs>
				<clipPath id="SVGID_4_">
					<use xlink:href="#SVGID_2_"  overflow="visible"/>
				</clipPath>
				<path clip-path="url(#SVGID_4_)" fill="#539643" d="M83.418,228.309c5.195-2.517,2.331-10.242-2.15-9.535
					c-1.361,0.215-20.42,3.225-20.42,3.225s1.328-4.503,0.947-6.912c-0.776-4.908-0.761-15.764-6.951-14.787
					c-5.131,0.81-3.591,4.109-3.31,5.89c0.28,1.78-18.52,35.984-18.52,35.984l-42.496,7.338l2.58,16.336l42.496-7.336l-0.314-1.99
					l3.875-0.61l-0.397-2.515c1.921,0.172,10.207,5.146,17.588,3.983c3.037-0.479,20.631-3.258,22.621-3.573
					c6.934-1.089,2.49-8.123,2.457-8.224c6.496-1.673,1.348-8.69,1.295-8.791C87.367,235.206,85.928,229.638,83.418,228.309z"/>
			</g>
		</g>
	</g>
	<g>
		<g>
			<g>
				<defs>
					<circle id="SVGID_5_" cx="50" cy="230" r="50"/>
				</defs>
				<clipPath id="SVGID_6_">
					<use xlink:href="#SVGID_5_"  overflow="visible"/>
				</clipPath>
				<path clip-path="url(#SVGID_6_)" fill="#DBD8DB" d="M35.972,250.619c0.837,0.074,7.594,3.029,9.5,3.347
					c6.798,1.136,3.161,1.138,29.127-2.95c6.66-1.058,2.395-7.801,2.361-7.898c6.199-1.596,1.296-8.346,1.244-8.445
					c4.501-1.539,3.048-6.894,0.672-8.151c5.056-2.447,2.181-9.832-2.066-9.16c-1.308,0.207-19.618,3.099-19.618,3.099
					c1.832-6.216,0.734-21.874-5.768-20.847c-4.93,0.779-3.449,3.947-3.18,5.658s-0.473,12.346-7.791,16.285
					c-7.318,3.939-8.17,5.725-8.17,5.725L35.972,250.619z"/>
			</g>
		</g>
	</g>
	<g>
		
			<rect x="30.357" y="224.583" transform="matrix(0.9878 -0.156 0.156 0.9878 -36.8895 7.9542)" fill="#FFFFFF" width="3.769" height="28.929"/>
	</g>
	<g>
		<g>
			<g>
				<defs>
					<circle id="SVGID_7_" cx="50" cy="230" r="50"/>
				</defs>
				<clipPath id="SVGID_8_">
					<use xlink:href="#SVGID_7_"  overflow="visible"/>
				</clipPath>
				<polygon clip-path="url(#SVGID_8_)" fill="#472B7F" points="-10.372,246.889 30.454,239.84 32.933,255.533 -7.893,262.582 				
					"/>
			</g>
		</g>
	</g>
	<g>
		<g>
			<g>
				<defs>
					<circle id="SVGID_9_" cx="50" cy="230" r="50"/>
				</defs>
				<clipPath id="SVGID_10_">
					<use xlink:href="#SVGID_9_"  overflow="visible"/>
				</clipPath>
				<polygon clip-path="url(#SVGID_10_)" fill="#352062" points="-12.93,230.689 27.896,223.642 30.454,239.84 -10.372,246.889 				
					"/>
			</g>
		</g>
	</g>
	<g>
		<g>
			<g>
				<defs>
					<circle id="SVGID_11_" cx="50" cy="230" r="50"/>
				</defs>
				<clipPath id="SVGID_12_">
					<use xlink:href="#SVGID_11_"  overflow="visible"/>
				</clipPath>
				<path clip-path="url(#SVGID_12_)" fill="#FFFFFF" d="M24.019,230.354c0,2.693-4.074,2.697-4.074,0
					C19.945,227.661,24.019,227.657,24.019,230.354z"/>
			</g>
		</g>
	</g>
	<g>
		<g>
			<g>
				<defs>
					<circle id="SVGID_13_" cx="50" cy="230" r="50"/>
				</defs>
				<clipPath id="SVGID_14_">
					<use xlink:href="#SVGID_13_"  overflow="visible"/>
				</clipPath>
				<path clip-path="url(#SVGID_14_)" fill="#FFFFFF" d="M51.225,207.48c-0.826,0.646-3.117,1.351-3.242,0.512
					c-0.088-0.584,0.21-1.335-0.075-3.139c-0.539-3.416-0.275-3.879,0.606-4.018c1.621-0.256,3.05,2.26,3.305,3.869
					C52.072,206.314,51.225,207.48,51.225,207.48z"/>
			</g>
		</g>
	</g>
</g>
<g>
	<g>
		<circle id="SVGID_3_" fill="#FF3F3C" cx="50.027" cy="330.014" r="49.986"/>
	</g>
	<g>
		<g>
			<g>
				<defs>
					<circle id="SVGID_15_" cx="50.027" cy="330.014" r="49.986"/>
				</defs>
				<clipPath id="SVGID_16_">
					<use xlink:href="#SVGID_15_"  overflow="visible"/>
				</clipPath>
				<path clip-path="url(#SVGID_16_)" fill="#D32A29" d="M44.643,336.779c-3.741,5.121-8.473,21.153-1.668,22.444
					c5.104,0.97,4.767-2.653,5.102-4.428c0.335-1.77,4.797-11.926,13.348-13.218c8.541-1.29,10.009-2.736,10.014-2.74l48.672-4.234
					l3.08-16.244l-42.468-7.429l-0.376,1.979l-4.327,1.769c-0.794-0.364-6.376-5.632-8.132-6.608
					c-5.89-3.295-2.336-2.201-29.572-7.333c-6.892-1.314-5.083,6.81-5.085,6.909C26.586,307.027,44.643,336.779,44.643,336.779z"/>
			</g>
		</g>
	</g>
	<g>
		<g>
			<g>
				<defs>
					<circle id="SVGID_17_" cx="50.027" cy="330.014" r="49.986"/>
				</defs>
				<clipPath id="SVGID_18_">
					<use xlink:href="#SVGID_17_"  overflow="visible"/>
				</clipPath>
				<path clip-path="url(#SVGID_18_)" fill="#DBD8DB" d="M70.183,315.339c-1.684-0.78-7.575-7.972-14.612-9.3
					c-2.901-0.553-19.708-3.74-21.609-4.1c-6.623-1.257-4.884,6.538-4.887,6.64c-6.437-0.597-4.031,7.43-4.017,7.53
					c-4.752-0.074-5.196,5.455-3.379,7.441c-5.513,0.593-5.424,8.509-1.146,9.317c1.301,0.246,19.509,3.697,19.509,3.697
					s-2.661,3.643-3.097,5.942c-0.895,4.711-4.413,14.504,1.495,15.622c4.902,0.929,4.577-2.554,4.9-4.254
					c0.324-1.701,4.608-11.458,12.823-12.7c8.216-1.238,9.62-2.632,9.62-2.632L70.183,315.339z"/>
			</g>
		</g>
	</g>
	<g>
		
			<rect x="67.909" y="313.046" transform="matrix(-0.9824 -0.1866 0.1866 -0.9824 77.2429 662.278)" fill="#FFFFFF" width="3.768" height="28.915"/>
	</g>
	<g>
		<g>
			<g>
				<defs>
					<circle id="SVGID_19_" cx="50.027" cy="330.014" r="49.986"/>
				</defs>
				<clipPath id="SVGID_20_">
					<use xlink:href="#SVGID_19_"  overflow="visible"/>
				</clipPath>
				<polygon clip-path="url(#SVGID_20_)" fill="#472B7F" points="112.54,334.479 71.74,327.346 74.7,311.738 115.499,318.871 				
					"/>
			</g>
		</g>
	</g>
	<g>
		<g>
			<g>
				<defs>
					<circle id="SVGID_21_" cx="50.027" cy="330.014" r="49.986"/>
				</defs>
				<clipPath id="SVGID_22_">
					<use xlink:href="#SVGID_21_"  overflow="visible"/>
				</clipPath>
				<polygon clip-path="url(#SVGID_22_)" fill="#352062" points="109.484,350.585 68.686,343.452 71.74,327.346 112.54,334.479 				
					"/>
			</g>
		</g>
	</g>
	<g>
		<g>
			<g>
				<defs>
					<circle id="SVGID_23_" cx="50.027" cy="330.014" r="49.986"/>
				</defs>
				<clipPath id="SVGID_24_">
					<use xlink:href="#SVGID_23_"  overflow="visible"/>
				</clipPath>
				<path clip-path="url(#SVGID_24_)" fill="#FFFFFF" d="M78.552,339.128c0,2.692-4.072,2.694-4.072,0
					S78.552,336.434,78.552,339.128z"/>
			</g>
		</g>
	</g>
	<g>
		<g>
			<g>
				<defs>
					<circle id="SVGID_25_" cx="50.027" cy="330.014" r="49.986"/>
				</defs>
				<clipPath id="SVGID_26_">
					<use xlink:href="#SVGID_25_"  overflow="visible"/>
				</clipPath>
				<path clip-path="url(#SVGID_26_)" fill="#FFFFFF" d="M41.28,350.795c0.996-0.329,3.389-0.22,3.225,0.611
					c-0.115,0.578-0.648,1.187-0.988,2.979c-0.645,3.396-1.049,3.743-1.926,3.576c-1.611-0.304-2.107-3.154-1.804-4.756
					C40.091,351.605,41.28,350.795,41.28,350.795z"/>
			</g>
		</g>
	</g>
</g>
<g>
	
		<linearGradient id="SVGID_27_" gradientUnits="userSpaceOnUse" x1="234.9434" y1="14.6367" x2="274.3405" y2="23.9466" gradientTransform="matrix(1 0 0 -1 -234.5 168.5)">
		<stop  offset="0" style="stop-color:#292E6D"/>
		<stop  offset="0.8041" style="stop-color:#2A469C"/>
	</linearGradient>
	<polygon fill="url(#SVGID_27_)" points="14.092,155.916 17.33,155.916 19.355,144.115 16.116,144.115 	"/>
	
		<linearGradient id="SVGID_28_" gradientUnits="userSpaceOnUse" x1="235.3516" y1="12.8809" x2="274.7858" y2="22.1996" gradientTransform="matrix(1 0 0 -1 -234.5 168.5)">
		<stop  offset="0" style="stop-color:#292E6D"/>
		<stop  offset="0.8041" style="stop-color:#2A469C"/>
	</linearGradient>
	<path fill="url(#SVGID_28_)" d="M24.066,147.39c0-1.258,2.715-1.298,4.57-0.426l0.438-2.558c-3.352-1.249-8.349-0.151-8.376,3.399
		c-0.034,2.985,4.534,3.171,4.516,4.669c-0.008,0.844-1.257,1.888-5.404,0.345l-0.455,2.642c3.175,1.381,9.205,0.744,9.247-3.402
		C28.635,148.971,24.049,148.78,24.066,147.39z"/>
	
		<linearGradient id="SVGID_29_" gradientUnits="userSpaceOnUse" x1="236.0498" y1="10.0439" x2="275.4644" y2="19.3581" gradientTransform="matrix(1 0 0 -1 -234.5 168.5)">
		<stop  offset="0" style="stop-color:#292E6D"/>
		<stop  offset="0.8041" style="stop-color:#2A469C"/>
	</linearGradient>
	<path fill="url(#SVGID_29_)" d="M37.378,144.127h-2.501c-2.205,0-1.314,1.107-6.506,11.792h3.4c0,0,0.556-1.454,0.682-1.772
		c0.372,0,3.675,0.005,4.147,0.005c0.097,0.412,0.395,1.768,0.395,1.768H40L37.378,144.127z M33.385,151.732
		c0.268-0.68,1.557-3.982,1.72-4.425c1.328,6.064,0.87,3.972,0.969,4.425H33.385z"/>
	
		<linearGradient id="SVGID_30_" gradientUnits="userSpaceOnUse" x1="234.2695" y1="17.2856" x2="273.7573" y2="26.6169" gradientTransform="matrix(1 0 0 -1 -234.5 168.5)">
		<stop  offset="0" style="stop-color:#292E6D"/>
		<stop  offset="0.8041" style="stop-color:#2A469C"/>
	</linearGradient>
	<path fill="url(#SVGID_30_)" d="M11.375,144.124l-3.171,8.047c-1.623-7.881-1.354-7.996-2.94-8.055H0.041L0,144.362
		c1.271,0.306,2.406,0.746,3.402,1.295l2.879,10.248l3.426-0.004l5.098-11.777H11.375z"/>
</g>
<g>
	
		<linearGradient id="path10_1_" gradientUnits="userSpaceOnUse" x1="480.1846" y1="631.2246" x2="492.0557" y2="631.2246" gradientTransform="matrix(1 0 0 1 -412 -504.5)">
		<stop  offset="0" style="stop-color:#01B3E4"/>
		<stop  offset="1" style="stop-color:#0A8CC9"/>
	</linearGradient>
	<path id="path10" fill="url(#path10_1_)" d="M75.876,124.267h-7.67c0.413,2.539,2.886,4.915,5.608,4.915h6.104
		C80.569,127.238,78.871,124.267,75.876,124.267z"/>
	<path id="path12" fill="#4DB35E" d="M68.866,129.591v6.143h3.711v-3.275c1.263-0.232,5.977,1.097,7.175-2.867L68.866,129.591
		L68.866,129.591z"/>
	<path id="path14" fill="#4DB35E" d="M55.67,124.267v11.467c2.75,0,3.954,0.337,4.537-0.818c2.227-4.424,2.886-5.733,2.886-5.733
		h0.413v6.552h3.711v-11.467c-2.941,0.059-3.896-0.328-4.536,0.819c-1.896,3.768-2.887,5.733-2.887,5.733h-0.411v-6.553H55.67z"/>
	<path id="path16" fill="#4DB35E" d="M40,135.733v-11.467c3.409,0,4.601-0.521,5.361,1.639c1.484,4.341,1.65,4.914,1.65,4.914
		s0.329-1.064,1.649-4.914c0.747-2.118,1.742-1.639,5.361-1.639v11.467H50.31v-6.143h-0.413l-2.062,6.143h-1.649l-2.062-6.143
		h-0.412v6.143H40z"/>
</g>
<g>
	<rect x="19.445" y="122.139" fill="#F16623" width="8.75" height="15.724"/>
	<path fill="#E31F27" d="M20.001,130c0-3.188,1.494-6.03,3.819-7.861C17.361,117.052,7.641,121.58,7.641,130
		c0,8.448,9.742,12.936,16.18,7.862C21.495,136.031,20.001,133.19,20.001,130"/>
	<path fill="#F89E1E" d="M40,130c0,8.434-9.736,12.94-16.179,7.861c5.087-4.003,5.097-11.71,0-15.723
		C30.281,117.056,40,121.573,40,130"/>
</g>
<g id="Layer_x0020_1">
	<path fill="#FFFFFF" d="M39.956,176.5c0,2.23-1.807,4.038-4.038,4.038H13.996v-15.961c0-2.23,1.807-4.039,4.038-4.039h21.922V176.5
		L39.956,176.5z"/>
	
		<linearGradient id="SVGID_31_" gradientUnits="userSpaceOnUse" x1="-343.0645" y1="223.1123" x2="-340.5503" y2="223.1123" gradientTransform="matrix(2.8346 0 0 -2.8346 1003.8391 802.9937)">
		<stop  offset="0" style="stop-color:#007C40"/>
		<stop  offset="1" style="stop-color:#56B247"/>
	</linearGradient>
	<path fill="url(#SVGID_31_)" d="M34.3,170.889c1.435,0,1.231,1.515,0.307,1.515h-1.8v-1.515H34.3z M34.345,170.023h-1.536v-1.4
		c0.684,0,1.742,0,1.547,0C35.275,168.684,35.38,169.955,34.345,170.023z M38.514,176.308c0,1.779-1.311,2.88-2.784,2.88h-4.336
		v-5.875c0.968,0,4.557,0,4.331,0c2.697,0,2.697-2.845,0.339-2.845l0,0c1.545,0,1.514-2.655-0.101-2.655h-4.575v-2.861
		c0-2.42,1.649-3.022,2.302-3.022h4.812C38.503,161.93,38.514,176.206,38.514,176.308z"/>
	
		<linearGradient id="SVGID_32_" gradientUnits="userSpaceOnUse" x1="-348.6914" y1="223.1211" x2="-346.1822" y2="223.1211" gradientTransform="matrix(2.8346 0 0 -2.8346 1003.8391 802.9937)">
		<stop  offset="0" style="stop-color:#2A2F6E"/>
		<stop  offset="1" style="stop-color:#0E6EB6"/>
	</linearGradient>
	<path fill="url(#SVGID_32_)" d="M15.438,171.893v-7.124c0-3.207,4.031-2.881,4.261-2.881c0.032,0,2.867,0,2.867,0v14.284
		c0,1.953-1.531,3.02-3.113,3.02s-4.016,0-4.016,0v-6.079c4.6,0.943,6.457,0.036,6.539-2.216v-3.132h-2.478c0,0,0,2.32,0,3.132
		C19.498,172.99,17.284,172.794,15.438,171.893z"/>
	
		<linearGradient id="SVGID_33_" gradientUnits="userSpaceOnUse" x1="-345.8818" y1="223.1235" x2="-343.3609" y2="223.1235" gradientTransform="matrix(2.8346 0 0 -2.8346 1003.8391 802.9937)">
		<stop  offset="0" style="stop-color:#6E2B30"/>
		<stop  offset="1" style="stop-color:#E11D3A"/>
	</linearGradient>
	<path fill="url(#SVGID_33_)" d="M23.404,168.547c0,0,0-2.265,0-3.281c0-0.101-0.219-3.326,2.938-3.387
		c0.518-0.01,4.206,0.009,4.206,0.009v14.018c0,0.055,0.365,3.162-3.187,3.275h-3.943v-6.652c1.736,1.482,4.152,0.983,6.345,0.59
		v-1.22c-1.478,0.676-2.708,0.822-3.647,0.426c-0.796-0.303-1.372-1.496-0.923-2.638c0.74-1.752,3.432-1.091,4.554-0.51v-1.221
		C25.725,167.055,23.929,168.099,23.404,168.547z"/>
</g>
<path fill="#320065" d="M145,18h-18c-1.656,0-3,1.343-3,3v10c0,1.657,1.344,3,3,3h18c1.658,0,3-1.343,3-3V21
	C148,19.343,146.658,18,145,18z M147,31c0,1.103-0.896,2-2,2h-18c-1.104,0-2-0.897-2-2v-6.5h22V31z M125,21.5
	c0-2.327,1.539-2.5,2-2.5h18c0.461,0,2,0.172,2,2.5H125z"/>
<path fill="#320065" d="M140.139,186.289c-1.744-0.427-2.719-1.329-1.875-2.417c0.938-1.208,2.268-3.095,2.268-5.134
	c0-7.656-9.06-7.662-9.06,0c0,2.039,1.326,3.927,2.266,5.134c0.843,1.087-0.133,1.989-1.875,2.417
	c-5.949,1.459-5.857,2.762-5.857,4.705h19.997C145.998,189.21,146.371,187.818,140.139,186.289z"/>
<g id="E-Com">
	<g id="Amex_3_">
		<g id="Amex">
			<g>
				<path fill="#3498D8" d="M77.5,140h-35c-1.375,0-2.5,1.112-2.5,2.471v15.059c0,1.359,1.125,2.471,2.5,2.471h35
					c1.374,0,2.5-1.111,2.5-2.471v-15.059C80,141.112,78.875,140,77.5,140z"/>
			</g>
		</g>
		<g id="Amex_1_">
			<g>
				<path fill="#FFFFFF" d="M48.441,150.472h1.996l-0.998-2.494L48.441,150.472z M76.257,145.732h-5.113l-1.247,1.372l-1.123-1.372
					H57.921l-0.998,2.246l-0.998-2.246H51.56v0.998l-0.499-0.998h-3.742l-3.618,8.731h4.366l0.499-1.372h1.248l0.499,1.372h4.865
					v-0.998l0.374,0.998h2.496l0.374-1.123v1.123h9.979l1.249-1.372l1.122,1.372h5.115l-3.244-4.366L76.257,145.732z
					 M59.793,153.216v-4.865l-2.121,4.865h-1.247l-2.121-4.865v4.865h-2.869l-0.499-1.372h-2.994l-0.499,1.372h-1.622l2.62-6.237
					h2.121l2.37,5.863v-5.863h2.37l1.871,4.242l1.747-4.242h2.369v6.237C61.188,153.216,59.692,153.216,59.793,153.216z
					 M73.514,153.216h-1.872l-1.622-2.121l-1.872,2.121h-5.612v-6.237h5.738l1.746,1.996l1.871-1.996h1.746l-2.744,3.119
					L73.514,153.216z M63.908,149.349h3.12v1.248h-3.12v1.247h3.493l1.622-1.872l-1.496-1.746h-3.619
					C63.908,148.327,63.908,149.45,63.908,149.349z"/>
			</g>
		</g>
	</g>
</g>
<g>
	<path fill="#004A97" d="M69.543,180C75.01,180.026,80,175.542,80,170.087c0-5.965-4.99-10.088-10.457-10.087h-4.705
		c-5.533-0.001-10.087,4.123-10.087,10.087c0,5.457,4.554,9.939,10.087,9.913H69.543z"/>
	<path fill="#FFFFFF" d="M66.936,175.399v-10.833C71.898,166.468,71.892,173.494,66.936,175.399 M62.783,164.566v10.83
		C57.84,173.499,57.819,166.476,62.783,164.566z M64.859,160.827c-5.055,0.002-9.152,4.099-9.152,9.156
		c0,5.056,4.098,9.153,9.152,9.154c5.057-0.001,9.154-4.099,9.155-9.154C74.014,164.926,69.916,160.829,64.859,160.827"/>
</g>
<path fill="#320065" d="M141.792,127.678v-3.501c0-7.035-11.583-7.06-11.583,0v3.501c-0.48,0.101-3.208-0.553-3.208,1.503v10.401
	c0,0.832,0.67,1.504,1.494,1.504h15.01c0.828,0,1.496-0.672,1.496-1.504v-10.401C144.998,127.085,142.337,127.792,141.792,127.678z
	 M134.133,124.417c0-2.486,3.735-2.487,3.735,0v3.261h-3.735V124.417z M136.57,135.796c-0.098,0.777,0.311,2.045-0.569,2.045
	c-0.89,0-0.479-1.295-0.573-2.045c-2.205-0.674-1.717-3.955,0.573-3.955C138.289,131.841,138.777,135.123,136.57,135.796z"/>
<g>
	<path fill="#320065" d="M143.184,71.361h-0.767v-0.75c0-1.485-2.084-0.872-2.917-1c-1.282,0-0.966,1.617-1,1.75h-5
		c-0.031-0.124,0.29-1.75-1-1.75h-1.917c-1.282,0-0.966,1.617-1,1.75h-0.767c-1.834,0-3.316,1.343-3.316,3c0,0.157,0,9.281,0,9.027
		c0,1.657,1.482,3,3.316,3h14.367c1.832,0,3.313-1.343,3.313-3c0-0.385,0-9.53,0-9.027C146.5,72.704,145.018,71.361,143.184,71.361z
		 M130.416,85.389c-0.281-0.063-3.829,0.542-3.91-1.944h3.909L130.416,85.389L130.416,85.389z M130.416,82.444H126.5v-2h3.916
		V82.444z M126.5,79.444v-2.083h3.916v2.083 M135.5,85.389h-4.084v-1.944h4.084V85.389z M135.5,82.444h-4.084v-2h4.084V82.444z
		 M135.5,79.444h-4.084v-2.083h4.084V79.444z M140.666,85.389H136.5v-1.944h4.166V85.389z M140.666,82.444H136.5v-2h4.166V82.444z
		 M140.666,79.444H136.5v-2.083h4.166V79.444z M141.666,85.389v-1.944h3.827C145.417,85.856,141.9,85.335,141.666,85.389z
		 M145.5,82.444h-3.834v-2h3.834V82.444z M145.5,79.444h-3.834v-2.083h3.834V79.444z"/>
</g>
<path fill="#FF3F3C" d="M145,226h-18c-1.656,0-3,1.343-3,3v10c0,1.656,1.344,3,3,3h18c1.658,0,3-1.344,3-3v-10
	C148,227.343,146.658,226,145,226z M147,239c0,1.104-0.896,2-2,2h-18c-1.104,0-2-0.896-2-2v-6.5h22V239z M125,229.5
	c0-2.327,1.539-2.5,2-2.5h18c0.461,0,2,0.172,2,2.5H125z"/>
<path fill="#FF3F3C" d="M140.139,393.959c-1.744-0.428-2.719-1.329-1.875-2.416c0.938-1.208,2.268-3.096,2.268-5.135
	c0-7.655-9.06-7.661-9.06,0c0,2.039,1.326,3.927,2.266,5.135c0.843,1.087-0.133,1.988-1.875,2.416
	c-5.771,1.414-5.857,2.626-5.857,4.705h19.997C145.998,396.88,146.371,395.486,140.139,393.959z"/>
<path fill="#FF3F3C" d="M141.792,335.348v-3.5c0-7.035-11.583-7.06-11.583,0v3.5c-0.482,0.104-3.208-0.553-3.208,1.504v10.4
	c0,0.832,0.67,1.504,1.494,1.504h15.01c0.828,0,1.496-0.672,1.496-1.504v-10.4C144.998,334.754,142.337,335.462,141.792,335.348z
	 M134.133,332.087c0-2.485,3.735-2.485,3.735,0v3.261h-3.735V332.087z M136.57,343.466c-0.098,0.777,0.311,2.046-0.569,2.046
	c-0.89,0-0.479-1.297-0.573-2.046c-2.205-0.675-1.717-3.954,0.573-3.954C138.289,339.511,138.779,342.792,136.57,343.466z"/>
<g>
	<path fill="#FF3F3C" d="M142.417,279.031v-0.75c0-1.485-2.084-0.872-2.917-1c-1.282,0-0.966,1.617-1,1.75h-5v-0.75
		c0-1.484-2.081-0.872-2.917-1c-1.282,0-0.966,1.617-1,1.75c-0.534,0-4.083-0.133-4.083,3c0,0.156,0,9.281,0,9.027
		c0,1.654,1.482,3,3.316,3h14.367c1.832,0,3.313-1.346,3.313-3c0-0.388,0-9.531,0-9.027
		C146.501,278.909,142.857,279.031,142.417,279.031z M130.416,293.059c-0.551,0-3.833,0.404-3.91-1.941h3.909L130.416,293.059
		L130.416,293.059z M130.416,290.114H126.5v-2h3.916V290.114z M126.5,287.114v-2.083h3.916v2.083 M135.5,293.059h-4.084v-1.941
		h4.084V293.059z M135.5,290.114h-4.084v-2h4.084V290.114z M135.5,287.114h-4.084v-2.083h4.084V287.114z M140.666,293.059H136.5
		v-1.941h4.166V293.059z M140.666,290.114H136.5v-2h4.166V290.114z M140.666,287.114H136.5v-2.083h4.166V287.114z M141.666,293.059
		v-1.941h3.827C145.417,293.525,141.9,293.005,141.666,293.059z M145.5,290.114h-3.834v-2h3.834V290.114z M145.5,287.114h-3.834
		v-2.083h3.834V287.114z"/>
</g>
<path fill="#25A6DF" d="M145,434h-18c-1.656,0-3,1.344-3,3v10c0,1.656,1.344,3,3,3h18c1.658,0,3-1.344,3-3v-10
	C148,435.344,146.658,434,145,434z M147,447c0,1.104-0.896,2-2,2h-18c-1.104,0-2-0.896-2-2v-6.5h22V447z M125,437.5
	c0-2.328,1.541-2.5,2-2.5h18c0.46,0,2,0.17,2,2.5H125z"/>
</svg>
